<mxfile host="app.diagrams.net" modified="2023-11-23T10:17:46.357Z" agent="Mozilla/5.0 (X11; Linux x86_64; rv:120.0) Gecko/20100101 Firefox/120.0" version="22.1.3" etag="Ulxi4sAt4eeQsEelPdVF" type="github">
  <diagram name="Page-1" id="7BLjGXBUdyliq4MovSSP">
    <mxGraphModel>
      <root>
        <mxCell id="0" />
        <mxCell id="1" parent="0" />
      </root>
    </mxGraphModel>
  </diagram>
</mxfile>
